<?xml version="1.0" encoding="UTF-8"?>
<!DOCTYPE svg PUBLIC "-//W3C//DTD SVG 1.1//EN" "http://www.w3.org/Graphics/SVG/1.1/DTD/svg11.dtd">
<svg xmlns="http://www.w3.org/2000/svg" version="1.1" width="13149px" height="3348px" style="shape-rendering:geometricPrecision; text-rendering:geometricPrecision; image-rendering:optimizeQuality; fill-rule:evenodd; clip-rule:evenodd" xmlns:xlink="http://www.w3.org/1999/xlink">
<g><path style="opacity:0.999" fill="#7633de" d="M -0.5,-0.5 C 2.5,-0.5 5.5,-0.5 8.5,-0.5C 72.1372,3.38409 134.804,13.8841 196.5,31C 370.773,81.2788 490.939,190.779 557,359.5C 586.632,440.616 604.465,524.282 610.5,610.5C 527.892,604.945 447.559,588.445 369.5,561C 208.238,502.072 98.905,391.739 41.5,230C 18.0625,158.857 4.0625,86.0235 -0.5,11.5C -0.5,7.5 -0.5,3.5 -0.5,-0.5 Z"/></g>
<g><path style="opacity:0.999" fill="#4b4a4c" d="M 1287.5,394.5 C 1301.83,394.5 1316.17,394.5 1330.5,394.5C 1330.67,1016.83 1330.5,1639.17 1330,2261.5C 1318.8,2493.17 1241.8,2699.5 1099,2880.5C 941.143,3073.76 741.643,3204.93 500.5,3274C 455.044,3286.46 409.044,3296.29 362.5,3303.5C 362.333,2631.83 362.5,1960.17 363,1288.5C 370.13,1083.36 438.463,902.031 568,744.5C 718.881,567.898 909.048,457.065 1138.5,412C 1187.93,402.824 1237.59,396.991 1287.5,394.5 Z"/></g>
<g><path style="opacity:1" fill="#4b4a4c" d="M 1716.5,394.5 C 1953.36,395.275 2164.02,468.775 2348.5,615C 2487.44,728.673 2585.6,870.839 2643,1041.5C 2667.36,1117.61 2681.02,1195.61 2684,1275.5C 2684.5,1951.5 2684.67,2627.5 2684.5,3303.5C 2444.92,3265.03 2236.59,3164.2 2059.5,3001C 1920.17,2870.21 1821.34,2713.37 1763,2530.5C 1734.92,2438.93 1719.59,2345.27 1717,2249.5C 1716.5,1631.17 1716.33,1012.83 1716.5,394.5 Z"/></g>
<g><path style="opacity:1" fill="#7633de" d="M 13148.5,1877.5 C 13148.5,1956.83 13148.5,2036.17 13148.5,2115.5C 12439.2,2115.5 11729.8,2115.5 11020.5,2115.5C 11030.9,2224.56 11062.1,2327.23 11114,2423.5C 11174,2526.49 11255.2,2608.66 11357.5,2670C 11461.8,2731.32 11574.5,2766.32 11695.5,2775C 11798.6,2782.53 11900.6,2775.19 12001.5,2753C 12087.1,2733.18 12166.5,2699.18 12239.5,2651C 12345.6,2581.9 12439.1,2498.07 12520,2399.5C 12687,2525.67 12853.8,2652.01 13020.5,2778.5C 12927.7,2895.78 12820.7,2997.61 12699.5,3084C 12602.3,3151.77 12497.3,3205.11 12384.5,3244C 12168.1,3319.89 11945.4,3349.56 11716.5,3333C 11466.6,3316.79 11232.9,3247.12 11015.5,3124C 10769.8,2978.99 10585.3,2777.82 10462,2520.5C 10386.3,2361.59 10341.4,2194.25 10327.5,2018.5C 10313.7,1857.89 10322.5,1698.56 10354,1540.5C 10406,1301.13 10511,1089.13 10669,904.5C 10809,745.185 10976.5,623.685 11171.5,540C 11398.6,443.583 11635.6,398.916 11882.5,406C 12051.1,409.256 12213.4,442.589 12369.5,506C 12617.4,611.916 12807.2,782.416 12939,1017.5C 13028.3,1180.43 13088,1353.77 13118,1537.5C 13136.3,1650.26 13146.5,1763.59 13148.5,1877.5 Z M 11725.5,929.5 C 11806.5,928.391 11886.5,936.557 11965.5,954C 12099.3,983.957 12211.2,1050.12 12301,1152.5C 12370.9,1237.74 12415.6,1335.07 12435,1444.5C 12443.9,1493.1 12448.7,1542.1 12449.5,1591.5C 11973.2,1591.5 11496.8,1591.5 11020.5,1591.5C 11034.8,1473.7 11070.6,1363.03 11128,1259.5C 11171.2,1185.62 11226,1121.45 11292.5,1067C 11379.6,1000.72 11477.6,959.053 11586.5,942C 11632.7,934.645 11679,930.478 11725.5,929.5 Z"/></g>
<g><path style="opacity:1" fill="#7633de" d="M 4446.5,3347.5 C 4416.83,3347.5 4387.17,3347.5 4357.5,3347.5C 4117.9,3342.1 3889.9,3287.93 3673.5,3185C 3366.6,3033.1 3143.77,2800.6 3005,2487.5C 2931.79,2317.81 2892.12,2140.47 2886,1955.5C 2878.05,1787.72 2895.72,1622.72 2939,1460.5C 3009.02,1218.16 3132.85,1008.66 3310.5,832C 3463.07,686.308 3639.74,578.642 3840.5,509C 4081.33,426.611 4328.33,398.945 4581.5,426C 4781.61,448.472 4965.61,514.472 5133.5,624C 5273.38,719.54 5387.55,839.374 5476,983.5C 5566.93,1135.91 5630.59,1299.24 5667,1473.5C 5694.59,1608.77 5709.26,1745.43 5711,1883.5C 5711.5,1964.5 5711.67,2045.5 5711.5,2126.5C 5002.17,2126.5 4292.83,2126.5 3583.5,2126.5C 3594.17,2236.01 3625.67,2339.01 3678,2435.5C 3728.77,2523.28 3795.94,2596.11 3879.5,2654C 3994.12,2731.99 4120.96,2775.82 4260,2785.5C 4370.32,2793.68 4479.15,2784.52 4586.5,2758C 4647.3,2742.29 4704.97,2718.96 4759.5,2688C 4883.06,2614.32 4991.06,2521.82 5083.5,2410.5C 5250.17,2536.5 5416.83,2662.5 5583.5,2788.5C 5479.59,2920.27 5357.92,3032.1 5218.5,3124C 5130.28,3179.61 5036.61,3224.27 4937.5,3258C 4778.3,3313.01 4614.63,3342.84 4446.5,3347.5 Z M 4263.5,940.5 C 4365.91,936.366 4466.57,947.533 4565.5,974C 4706.83,1014.42 4819.33,1094.58 4903,1214.5C 4951.65,1289.4 4983.65,1371.07 4999,1459.5C 5007.26,1506.81 5011.76,1554.48 5012.5,1602.5C 4536.17,1602.5 4059.83,1602.5 3583.5,1602.5C 3597.59,1486.74 3632.42,1377.74 3688,1275.5C 3798.7,1082.68 3965.2,973.18 4187.5,947C 4212.93,944.088 4238.26,941.922 4263.5,940.5 Z"/></g>
<g><path style="opacity:0.999" fill="#7633de" d="M 7301.5,415.5 C 7356.82,415.248 7411.48,421.081 7465.5,433C 7497.74,439.894 7529.74,447.727 7561.5,456.5C 7562.67,681.833 7562.83,907.166 7562,1132.5C 7476.95,1108.56 7390.45,1092.06 7302.5,1083C 7202.91,1075.17 7104.24,1081.5 7006.5,1102C 6944.7,1115.26 6886.7,1137.93 6832.5,1170C 6771.87,1206.26 6716.71,1249.76 6667,1300.5C 6567.83,1409.88 6507.49,1538.21 6486,1685.5C 6481.26,1711.66 6477.93,1737.99 6476,1764.5C 6475.5,2268.83 6475.33,2773.17 6475.5,3277.5C 6242.5,3277.5 6009.5,3277.5 5776.5,3277.5C 5776.5,2346.83 5776.5,1416.17 5776.5,485.5C 6009.5,485.5 6242.5,485.5 6475.5,485.5C 6475.5,632.833 6475.5,780.167 6475.5,927.5C 6479.23,927.823 6482.89,927.489 6486.5,926.5C 6550.67,789.495 6643.34,675.662 6764.5,585C 6907.26,483.516 7066.6,427.849 7242.5,418C 7262.33,417.2 7282,416.367 7301.5,415.5 Z"/></g>
<g><path style="opacity:1" fill="#7633de" d="M 7615.5,476.5 C 7869.9,475.167 8124.4,475.167 8379,476.5C 8626.67,1126.83 8874.33,1777.17 9122,2427.5C 9123.7,2428.73 9125.7,2429.4 9128,2429.5C 9129.83,2429.17 9131.67,2428.83 9133.5,2428.5C 9383.43,1777.87 9633.26,1127.21 9883,476.5C 10121.8,475.501 10360.6,475.167 10599.5,475.5C 10233.6,1405.92 9867.47,2336.25 9501,3266.5C 9376.74,3267.17 9252.4,3267.5 9128,3267.5C 9003.6,3267.5 8879.26,3267.17 8755,3266.5C 8375.39,2336.3 7995.56,1406.3 7615.5,476.5 Z"/></g>
</svg>
